<?xml version="1.0" encoding="utf-8"?>
<svg version="1.1" id="Layer_1" xmlns="http://www.w3.org/2000/svg" xmlns:xlink="http://www.w3.org/1999/xlink" x="0px" y="0px"
	 viewBox="-1.000 -1.000 20.200 20.200" style="enable-background:new 0 0 18.2 18.2;" xml:space="preserve">
<g>
	<path fill="#231F20" d="M15.3,13.3C18.5,7.4,18.2,0,18.2,0S10.8-0.2,4.9,3c-5.2,2.8-6,8.5-3.6,11.9l4.2-3.7c-0.3-2.3,0.3-4.9,2-7.1
		C7.7,3.8,8,3.5,8.2,3.2C6.6,5.4,6,8,6.4,10.3l3.2-2.8c0,0-0.1,0-0.1,0.1c-0.3-1.6,0.1-3.5,1.3-5C11,2.4,11.1,2.2,11.3,2
		c-1.2,1.6-1.5,3.5-1.2,5.1l7-6.2l-4.6,4.5c1.6,0.5,3.5,0.3,5.2-0.8c-0.2,0.2-0.4,0.3-0.6,0.5c-1.7,1.1-3.6,1.4-5.2,0.9l0,0L8.8,9
		c2.4,0.7,5.1,0.3,7.6-1.2c-0.3,0.2-0.6,0.5-0.9,0.7c-2.4,1.6-5.1,2-7.5,1.4l-2.7,2.7c2.9,0.7,6.3,0.2,9.2-1.6
		c-0.4,0.3-0.8,0.6-1.2,0.9c-2.9,1.9-6.2,2.5-9.1,1.8L2,15.9C2.1,16,2.1,16,2.2,16.1C5.3,19.4,12.1,19.2,15.3,13.3z"/>
</g>
<script  type="text/javascript">
    <![CDATA[
         var c=window.location.search.split('color=')[1]; c=parseInt(c,16); if(!isNaN(c)){c=c.toString(16);var p=document.getElementsByTagName('path');for(var i=0,l=p.length;i<l;i++){var s=p[i].style;s.fill='#'+c;} var p2=document.getElementsByTagName('polygon');for(var i=0,l=p2.length;i<l;i++){var s=p2[i].style;s.fill='#'+c;} var p3=document.getElementsByTagName('circle');for(var i=0,l=p3.length;i<l;i++){var s=p3[i].style;s.fill='#'+c;} }
        ]]>
</script>
</svg>
